<svg xmlns="http://www.w3.org/2000/svg" xmlns:xlink="http://www.w3.org/1999/xlink" width="500" zoomAndPan="magnify" viewBox="0 0 375 374.999991" height="500" preserveAspectRatio="xMidYMid meet" version="1.0"><defs><g/></defs><g fill="#ffffff" fill-opacity="1"><g transform="translate(43.387319, 201.749987)"><g><path d="M 21 0 L 21 -6.078125 L 7.71875 -6.078125 L 7.71875 -26.679688 L 1.039062 -26.679688 L 1.039062 0 Z M 21 0 "/></g></g></g><g fill="#ffffff" fill-opacity="1"><g transform="translate(65.185154, 201.749987)"><g><path d="M 21.078125 0 L 21.078125 -26.679688 L 1.039062 -26.679688 L 1.039062 0 Z M 14.398438 -6.078125 L 7.71875 -6.078125 L 7.71875 -20.558594 L 14.398438 -20.558594 Z M 14.398438 -6.078125 "/></g></g></g><g fill="#ffffff" fill-opacity="1"><g transform="translate(87.302954, 201.749987)"><g><path d="M 21 0 L 21 -6.078125 L 7.71875 -6.078125 L 7.71875 -26.679688 L 1.039062 -26.679688 L 1.039062 0 Z M 21 0 "/></g></g></g><g fill="#ffffff" fill-opacity="1"><g transform="translate(109.100789, 201.749987)"><g><path d="M 21.078125 -7.441406 L 21.078125 -26.679688 L 1.039062 -26.679688 L 1.039062 0 L 7.71875 0 L 7.71875 -7.441406 Z M 14.398438 -13.519531 L 7.71875 -13.519531 L 7.71875 -20.558594 L 14.398438 -20.558594 Z M 14.398438 -13.519531 "/></g></g></g><g fill="#ffffff" fill-opacity="1"><g transform="translate(131.098598, 201.749987)"><g><path d="M 21.078125 0 L 21.078125 -26.679688 L 1.039062 -26.679688 L 1.039062 0 L 7.71875 0 L 7.71875 -7.441406 L 14.398438 -7.441406 L 14.398438 0 Z M 14.398438 -13.519531 L 7.71875 -13.519531 L 7.71875 -20.558594 L 14.398438 -20.558594 Z M 14.398438 -13.519531 "/></g></g></g><g fill="#ffffff" fill-opacity="1"><g transform="translate(153.216399, 201.749987)"><g><path d="M 20.679688 0 L 20.679688 -26.679688 L 0.640625 -26.679688 L 0.640625 -20.558594 L 1.960938 -20.558594 L 1.960938 -6.078125 L 0.640625 -6.078125 L 0.640625 0 Z M 14 -6.078125 L 7.320312 -6.078125 L 7.320312 -20.558594 L 14 -20.558594 Z M 14 -6.078125 "/></g></g></g><g fill="#ffde59" fill-opacity="1"><g transform="translate(173.615443, 201.749987)"><g><path d="M 21 -10.480469 L 21 -16.359375 L 7.71875 -16.359375 L 7.71875 -20.558594 L 21 -20.558594 L 21 -26.679688 L 1.039062 -26.679688 L 1.039062 0 L 7.71875 0 L 7.71875 -10.480469 Z M 21 -10.480469 "/></g></g></g><g fill="#ffde59" fill-opacity="1"><g transform="translate(195.653249, 201.749987)"><g><path d="M 7.71875 0 L 7.71875 -26.679688 L 1.039062 -26.679688 L 1.039062 0 Z M 7.71875 0 "/></g></g></g><g fill="#ffde59" fill-opacity="1"><g transform="translate(204.412373, 201.749987)"><g><path d="M 20.640625 0 L 20.640625 -26.679688 L 0.601562 -26.679688 L 0.601562 -20.558594 L 1.917969 -20.558594 L 1.917969 0 L 7.28125 0 L 7.28125 -20.558594 L 13.960938 -20.558594 L 13.960938 0 Z M 20.640625 0 "/></g></g></g><g fill="#ffde59" fill-opacity="1"><g transform="translate(226.090217, 201.749987)"><g><path d="M 21.078125 0 L 21.078125 -26.679688 L 1.039062 -26.679688 L 1.039062 0 L 7.71875 0 L 7.71875 -7.441406 L 14.398438 -7.441406 L 14.398438 0 Z M 14.398438 -13.519531 L 7.71875 -13.519531 L 7.71875 -20.558594 L 14.398438 -20.558594 Z M 14.398438 -13.519531 "/></g></g></g><g fill="#ffde59" fill-opacity="1"><g transform="translate(248.208017, 201.749987)"><g><path d="M 20.640625 0 L 20.640625 -26.679688 L 0.601562 -26.679688 L 0.601562 -20.558594 L 1.917969 -20.558594 L 1.917969 0 L 7.28125 0 L 7.28125 -20.558594 L 13.960938 -20.558594 L 13.960938 0 Z M 20.640625 0 "/></g></g></g><g fill="#ffde59" fill-opacity="1"><g transform="translate(269.88586, 201.749987)"><g><path d="M 21.078125 0 L 21.078125 -6.078125 L 7.71875 -6.078125 L 7.71875 -20.558594 L 21.078125 -20.558594 L 21.078125 -26.679688 L 1.039062 -26.679688 L 1.039062 0 Z M 21.078125 0 "/></g></g></g><g fill="#ffde59" fill-opacity="1"><g transform="translate(291.763689, 201.749987)"><g><path d="M 21 0 L 21 -6.078125 L 7.71875 -6.078125 L 7.71875 -10.480469 L 21 -10.480469 L 21 -16.359375 L 7.71875 -16.359375 L 7.71875 -20.558594 L 21 -20.558594 L 21 -26.679688 L 1.039062 -26.679688 L 1.039062 0 Z M 21 0 "/></g></g></g></svg>